<?xml version="1.0" encoding="UTF-8"?>
<svg version="1.1" xmlns="http://www.w3.org/2000/svg" width="512" height="512">
<path d="M0 0 C1.01545898 0.19867676 2.03091797 0.39735352 3.07714844 0.60205078 C52.9758035 10.58327711 96.53871388 34.88580573 133 70 C133.7940625 70.7528125 134.588125 71.505625 135.40625 72.28125 C140.75597303 77.46114055 145.38660506 83.16405541 150 89 C151.19109375 90.48306641 151.19109375 90.48306641 152.40625 91.99609375 C175.32205725 121.03970389 191.22147176 154.85685587 199.6875 190.8125 C199.97306763 191.99936401 199.97306763 191.99936401 200.2644043 193.21020508 C204.22851721 210.89052902 205.555362 228.61292655 205.4375 246.6875 C205.43293793 248.18546112 205.43293793 248.18546112 205.42828369 249.71368408 C205.35621635 265.78341917 204.43972751 281.25213186 201 297 C200.78037598 298.02625488 200.56075195 299.05250977 200.33447266 300.10986328 C191.83138831 338.85817193 174.61772522 375.56726438 149 406 C148.57138672 406.51739746 148.14277344 407.03479492 147.70117188 407.56787109 C137.18164284 420.2564129 126.03816903 431.86528878 113 442 C111.52660156 443.18142578 111.52660156 443.18142578 110.0234375 444.38671875 C70.29759115 476.0035908 18.37047678 496.93437939 -32.79296875 497.203125 C-33.69337387 497.21018463 -34.59377899 497.21724426 -35.52146912 497.22451782 C-72.98691069 497.45161655 -72.98691069 497.45161655 -90 494 C-91.01545898 493.80132324 -92.03091797 493.60264648 -93.07714844 493.39794922 C-142.9758035 483.41672289 -186.53871388 459.11419427 -223 424 C-223.7940625 423.2471875 -224.588125 422.494375 -225.40625 421.71875 C-230.75597303 416.53885945 -235.38660506 410.83594459 -240 405 C-240.7940625 404.01128906 -241.588125 403.02257812 -242.40625 402.00390625 C-266.9776499 370.86198961 -283.32468106 334.48759715 -291.25 295.6875 C-291.47671387 294.57942993 -291.47671387 294.57942993 -291.70800781 293.44897461 C-292.18439803 290.97158418 -292.60252786 288.49133778 -293 286 C-293.17805176 284.88423584 -293.35610352 283.76847168 -293.53955078 282.61889648 C-295.19998488 270.98027732 -295.3987437 259.43103747 -295.375 247.6875 C-295.37445618 246.6738739 -295.37391235 245.6602478 -295.37335205 244.61590576 C-295.33347417 228.41878779 -294.46747801 212.87491635 -291 197 C-290.78037598 195.97374512 -290.56075195 194.94749023 -290.33447266 193.89013672 C-279.82149525 145.98280374 -255.85138923 104.15003587 -222 69 C-221.2471875 68.2059375 -220.494375 67.411875 -219.71875 66.59375 C-214.53885945 61.24402697 -208.83594459 56.61339494 -203 52 C-202.01128906 51.2059375 -201.02257812 50.411875 -200.00390625 49.59375 C-167.66655102 24.07913264 -130.33332447 7.86607287 -90 0 C-89.17274414 -0.16661133 -88.34548828 -0.33322266 -87.49316406 -0.50488281 C-59.91781494 -5.80488028 -27.50199116 -5.57960557 0 0 Z " fill="#1877F1" transform="translate(301,9)"/>
<path d="M0 0 C4.71783631 4.04385969 9.27912013 8.09245773 13.72618103 12.41078186 C14.68457841 13.33720549 14.68457841 13.33720549 15.66233736 14.28234476 C17.78484907 16.33576567 19.90417347 18.39243917 22.02319336 20.44946289 C22.76925213 21.17245953 23.5153109 21.89545616 24.28397751 22.64036179 C38.99325247 36.89563262 53.61363295 51.24122666 68.20339108 65.6187067 C77.4832471 74.760201 86.78851692 83.87250443 96.16137695 92.91870117 C104.3575011 100.82926057 112.50036956 108.79039846 120.5845843 116.81534761 C124.85699872 121.05301791 129.15038876 125.26230672 133.50858879 129.41185188 C163.47341352 157.99829483 163.47341352 157.99829483 164.35070896 173.17301846 C164.17056384 177.81541299 163.63404187 182.21228234 162.67212105 186.75611687 C161.72266046 191.33853427 161.26658889 195.9497456 160.76165676 200.59855747 C155.26996827 246.24620405 135.56942177 290.87282195 106 326 C105.57138672 326.51739746 105.14277344 327.03479492 104.70117188 327.56787109 C94.18164284 340.2564129 83.03816903 351.86528878 70 362 C69.01773438 362.78761719 68.03546875 363.57523437 67.0234375 364.38671875 C37.69724055 387.72675306 3.384543 403.40144901 -33 412 C-33.88333008 412.21027832 -34.76666016 412.42055664 -35.67675781 412.63720703 C-36.54913086 412.83040527 -37.42150391 413.02360352 -38.3203125 413.22265625 C-39.09906738 413.39676025 -39.87782227 413.57086426 -40.68017578 413.75024414 C-44.13982386 414.1227152 -46.92612249 413.77634581 -49.78654194 411.70844269 C-50.33500876 411.15758751 -50.88347559 410.60673233 -51.44856262 410.03918457 C-52.0864975 409.40819351 -52.72443237 408.77720245 -53.38169861 408.12709045 C-54.06502762 407.43095139 -54.74835663 406.73481232 -55.45239258 406.01757812 C-56.1846405 405.2875206 -56.91688843 404.55746307 -57.67132568 403.80528259 C-60.08880276 401.39011684 -62.49169226 398.9609726 -64.89453125 396.53125 C-66.56810218 394.85275686 -68.2424856 393.17507346 -69.91764832 391.49816895 C-73.42472896 387.98344696 -76.92524358 384.46236267 -80.4206543 380.93603516 C-84.91273937 376.40429905 -89.41559904 371.88346999 -93.92270374 367.36667633 C-98.20853132 363.07090116 -102.48936169 358.77016155 -106.76953125 354.46875 C-107.59241953 353.64246597 -108.41530781 352.81618195 -109.2631321 351.96485901 C-111.5763768 349.64010177 -113.88607995 347.31188938 -116.19458008 344.98242188 C-116.88803024 344.28628281 -117.58148041 343.59014374 -118.29594421 342.87290955 C-118.91977997 342.24191849 -119.54361572 341.61092743 -120.18635559 340.96081543 C-120.73293729 340.40996025 -121.27951899 339.85910507 -121.84266376 339.29155731 C-123 338 -123 338 -123 337 C-102.87 337 -82.74 337 -62 337 C-62 285.85 -62 234.7 -62 182 C-44.51 182 -27.02 182 -9 182 C-9 179.03 -9 176.06 -9 173 C-8.79081231 170.67624282 -8.53594967 168.35603778 -8.23046875 166.04296875 C-7.98006836 164.12387695 -7.98006836 164.12387695 -7.72460938 162.16601562 C-7.63590576 161.50899658 -7.54720215 160.85197754 -7.45581055 160.17504883 C-7.19325138 158.23010421 -6.93930183 156.2840035 -6.68554688 154.33789062 C-5.25910909 143.53464293 -3.61702439 132.78016262 -2 122 C-21.8 122 -41.6 122 -62 122 C-62.061875 114.636875 -62.12375 107.27375 -62.1875 99.6875 C-62.22846802 96.23543091 -62.22846802 96.23543091 -62.27026367 92.71362305 C-62.27903945 90.85466026 -62.28668079 88.99569162 -62.29296875 87.13671875 C-62.30831665 86.19977173 -62.32366455 85.26282471 -62.33947754 84.29748535 C-62.342505 76.50985892 -61.59685868 67.83509948 -56.625 61.5 C-49.55010725 54.76200691 -42.41253765 53.69749912 -33.0078125 53.8046875 C-32.16855225 53.80670166 -31.32929199 53.80871582 -30.46459961 53.81079102 C-27.35134356 53.8211976 -24.23816587 53.84911993 -21.125 53.875 C-14.15375 53.91625 -7.1825 53.9575 0 54 C0 36.18 0 18.36 0 0 Z " fill="#1A56A3" transform="translate(344,89)"/>
<path d="M0 0 C1.05161316 -0.0033284 2.10322632 -0.0066568 3.18670654 -0.01008606 C5.40555384 -0.0151331 7.62440868 -0.01749507 9.84326172 -0.01733398 C13.20943955 -0.01951509 16.57528652 -0.03768004 19.94140625 -0.05664062 C22.10676972 -0.05957622 24.27213474 -0.0615599 26.4375 -0.0625 C27.43058167 -0.06968552 28.42366333 -0.07687103 29.44683838 -0.08427429 C30.88322662 -0.07965935 30.88322662 -0.07965935 32.34863281 -0.07495117 C33.58604218 -0.0770887 33.58604218 -0.0770887 34.84844971 -0.07926941 C39.60483563 0.2957268 44.29018852 1.3144803 48.984375 2.16796875 C48.984375 19.98796875 48.984375 37.80796875 48.984375 56.16796875 C28.046875 56.41796875 28.046875 56.41796875 21.49243164 56.46582031 C19.75143848 56.49522284 18.01046861 56.52605443 16.26953125 56.55859375 C15.38712769 56.55972168 14.50472412 56.56084961 13.59558105 56.56201172 C6.03247166 56.73392439 0.09087896 58.73679174 -5.890625 63.41796875 C-10.18736166 68.97845148 -12.08676244 75.86711584 -12.22094727 82.84472656 C-12.24112915 83.77816895 -12.26131104 84.71161133 -12.28210449 85.67333984 C-12.29858032 86.64609863 -12.31505615 87.61885742 -12.33203125 88.62109375 C-12.35068237 89.52134277 -12.3693335 90.4215918 -12.3885498 91.34912109 C-12.45674084 94.70530579 -12.51695756 98.0616487 -12.578125 101.41796875 C-12.7225 108.92546875 -12.866875 116.43296875 -13.015625 124.16796875 C6.784375 124.16796875 26.584375 124.16796875 46.984375 124.16796875 C46.984375 129.34442318 46.70971645 134.05934291 45.9609375 139.12890625 C45.80158218 140.25215805 45.80158218 140.25215805 45.63900757 141.39810181 C45.30036558 143.78040416 44.95529891 146.16171386 44.609375 148.54296875 C44.27155911 150.88864124 43.93525544 153.2345128 43.60116577 155.58071899 C43.3942484 157.0317225 43.18523913 158.48243064 42.97329712 159.93270874 C41.81659843 167.99720038 40.93742291 176.06706152 39.984375 184.16796875 C22.494375 184.16796875 5.004375 184.16796875 -13.015625 184.16796875 C-13.015625 235.31796875 -13.015625 286.46796875 -13.015625 339.16796875 C-33.475625 339.16796875 -53.935625 339.16796875 -75.015625 339.16796875 C-75.015625 288.01796875 -75.015625 236.86796875 -75.015625 184.16796875 C-92.175625 184.16796875 -109.335625 184.16796875 -127.015625 184.16796875 C-127.015625 164.36796875 -127.015625 144.56796875 -127.015625 124.16796875 C-109.855625 124.16796875 -92.695625 124.16796875 -75.015625 124.16796875 C-75.05042969 120.31109375 -75.08523437 116.45421875 -75.12109375 112.48046875 C-75.14457217 108.69401792 -75.1627415 104.90757559 -75.18041992 101.12109375 C-75.19539233 98.51428525 -75.21577742 95.90750143 -75.24194336 93.30078125 C-75.51105606 65.77741175 -75.51105606 65.77741175 -72.015625 52.16796875 C-71.80301025 51.23597656 -71.59039551 50.30398437 -71.37133789 49.34375 C-67.72837802 33.913973 -56.12283816 19.62102731 -43.015625 11.16796875 C-29.12481448 3.24213262 -15.91942467 0.01769465 0 0 Z " fill="#FEFEFE" transform="translate(295.015625,86.83203125)"/>
<path d="M0 0 C17.16 0 34.32 0 52 0 C52 17.16 52 34.32 52 52 C47.83817587 48.43272217 43.91857611 45.04406906 40.07446289 41.20385742 C39.17405777 40.30660446 38.27365265 39.4093515 37.34596252 38.48490906 C36.38806559 37.52522354 35.43029981 36.5654071 34.47265625 35.60546875 C33.47389555 34.60738282 32.47498654 33.60944527 31.47593689 32.61164856 C29.39761463 30.53479104 27.32108828 28.45615928 25.24584961 26.3762207 C22.58040028 23.70502997 19.91042593 21.03841407 17.23912907 18.37307262 C15.18280261 16.32034699 13.12884796 14.26526154 11.07562065 12.20943642 C10.09111438 11.22426184 9.10586138 10.23983292 8.1198597 9.25615501 C6.75075319 7.88957192 5.38516854 6.51946315 4.01977539 5.14916992 C3.24146866 4.3700676 2.46316193 3.59096527 1.66127014 2.78825378 C0 1 0 1 0 0 Z " fill="#1C5092" transform="translate(168,271)"/>
</svg>
