<?xml version="1.0" encoding="UTF-8"?>
<svg version="1.1" xmlns="http://www.w3.org/2000/svg" width="512" height="512">
<path d="M0 0 C1.55074548 -0.00418168 3.10148789 -0.00966374 4.65222472 -0.01631981 C8.87901709 -0.03068397 13.10561298 -0.02655819 17.3324157 -0.019153 C21.9044697 -0.01440107 26.47648241 -0.02694904 31.04852295 -0.03717041 C39.99237634 -0.05432456 48.93615938 -0.05520541 57.88002495 -0.04995751 C65.1536124 -0.04590805 72.42717914 -0.04736856 79.70076561 -0.05270576 C80.7379205 -0.05345419 81.77507539 -0.05420261 82.84365922 -0.05497371 C84.95097958 -0.05650527 87.05829994 -0.05804361 89.16562029 -0.05958868 C108.90668508 -0.07330162 128.64771019 -0.06788464 148.38877406 -0.05640347 C166.42525336 -0.04647365 184.46163005 -0.05940958 202.49809352 -0.08333766 C221.04435653 -0.10775556 239.59057179 -0.11732983 258.13685054 -0.11068493 C268.53857863 -0.10719853 278.94022785 -0.10938643 289.34194374 -0.12693596 C298.1971529 -0.14169166 307.05222764 -0.14224952 315.90743426 -0.12486505 C320.41985971 -0.11638013 324.93204536 -0.11414371 329.44445801 -0.1295166 C333.58556238 -0.14344912 337.72622345 -0.13849193 341.86730274 -0.11927737 C343.35507469 -0.11554307 344.84288289 -0.11836398 346.33062229 -0.12888902 C359.59559516 -0.21596336 372.818912 1.77801813 384.64494324 8.13768005 C385.63506409 8.65310364 385.63506409 8.65310364 386.64518738 9.17893982 C392.41402865 12.27753089 397.44180376 15.95765033 402.26994324 20.38768005 C403.02533386 21.05154724 403.78072449 21.71541443 404.55900574 22.3993988 C418.21017719 35.0888898 427.13382714 53.44367603 428.54660499 72.026775 C428.65697694 76.06020502 428.67552612 80.08334596 428.65762329 84.11773682 C428.66180497 85.66848229 428.66728703 87.21922471 428.6739431 88.76996154 C428.68830726 92.99675391 428.68418148 97.2233498 428.67677629 101.45015252 C428.67202436 106.02220651 428.68457233 110.59421923 428.6947937 115.16625977 C428.71194785 124.11011316 428.7128287 133.0538962 428.7075808 141.99776176 C428.70353134 149.27134922 428.70499186 156.54491595 428.71032906 163.81850243 C428.71107748 164.85565732 428.7118259 165.89281221 428.712597 166.96139603 C428.71412856 169.0687164 428.71566691 171.17603675 428.71721197 173.28335711 C428.73092491 193.02442189 428.72550793 212.765447 428.71402676 232.50651088 C428.70409694 250.54299018 428.71703287 268.57936686 428.74096095 286.61583034 C428.76537885 305.16209334 428.77495312 323.7083086 428.76830822 342.25458735 C428.76482182 352.65631545 428.76700972 363.05796466 428.78455925 373.45968056 C428.79931495 382.31488972 428.79987281 391.16996446 428.78248834 400.02517108 C428.77400343 404.53759653 428.771767 409.04978218 428.78713989 413.56219482 C428.80107241 417.70329919 428.79611522 421.84396027 428.77690066 425.98503955 C428.77316636 427.4728115 428.77598728 428.9606197 428.78651231 430.44835911 C428.87358665 443.71333198 426.87960516 456.93664882 420.51994324 468.76268005 C420.17632751 469.42276062 419.83271179 470.08284119 419.47868347 470.76292419 C416.3800924 476.53176546 412.69997296 481.55954058 408.26994324 486.38768005 C407.60607605 487.14307068 406.94220886 487.8984613 406.25822449 488.67674255 C393.56873349 502.32791401 375.21394726 511.25156395 356.63084829 512.66434181 C352.59741827 512.77471376 348.57427733 512.79326294 344.53988647 512.77536011 C342.989141 512.77954178 341.43839859 512.78502384 339.88766176 512.79167992 C335.66086938 512.80604408 331.43427349 512.8019183 327.20747077 512.79451311 C322.63541678 512.78976118 318.06340406 512.80230915 313.49136353 512.81253052 C304.54751013 512.82968466 295.6037271 512.83056552 286.65986153 512.82531761 C279.38627407 512.82126816 272.11270734 512.82272867 264.83912086 512.82806587 C263.28338853 512.82918851 263.28338853 512.82918851 261.69622726 512.83033382 C259.58890689 512.83186537 257.48158654 512.83340372 255.37426618 512.83494879 C235.6332014 512.84866173 215.89217629 512.84324475 196.15111241 512.83176357 C178.11463311 512.82183376 160.07825643 512.83476968 142.04179295 512.85869776 C123.49552995 512.88311567 104.94931469 512.89268994 86.40303594 512.88604504 C76.00130784 512.88255863 65.59965863 512.88474654 55.19794273 512.90229607 C46.34273357 512.91705177 37.48765883 512.91760963 28.63245221 512.90022516 C24.12002676 512.89174024 19.60784111 512.88950382 15.09542847 512.90487671 C10.9543241 512.91880922 6.81366302 512.91385204 2.67258374 512.89463747 C1.18481179 512.89090318 -0.30299641 512.89372409 -1.79073582 512.90424912 C-15.05570869 512.99132347 -28.27902553 510.99734198 -40.10505676 504.63768005 C-40.76513733 504.29406433 -41.4252179 503.95044861 -42.1053009 503.59642029 C-47.87414217 500.49782922 -52.90191729 496.81770978 -57.73005676 492.38768005 C-58.48544739 491.72381287 -59.24083801 491.05994568 -60.01911926 490.3759613 C-73.67029072 477.68647031 -82.59394066 459.33168408 -84.00671852 440.7485851 C-84.11709047 436.71515509 -84.13563964 432.69201415 -84.11773682 428.65762329 C-84.12191849 427.10687781 -84.12740055 425.5561354 -84.13405663 424.00539857 C-84.14842079 419.7786062 -84.14429501 415.55201031 -84.13688982 411.32520759 C-84.13213789 406.75315359 -84.14468585 402.18114088 -84.15490723 397.60910034 C-84.17206137 388.66524695 -84.17294223 379.72146391 -84.16769432 370.77759834 C-84.16364487 363.50401089 -84.16510538 356.23044415 -84.17044258 348.95685768 C-84.171191 347.91970279 -84.17193943 346.8825479 -84.17271053 345.81396407 C-84.17424208 343.70664371 -84.17578043 341.59932335 -84.17732549 339.492003 C-84.19103844 319.75093821 -84.18562145 300.00991311 -84.17414028 280.26884923 C-84.16421047 262.23236993 -84.17714639 244.19599325 -84.20107447 226.15952977 C-84.22549237 207.61326676 -84.23506665 189.0670515 -84.22842175 170.52077276 C-84.22493534 160.11904466 -84.22712324 149.71739544 -84.24467278 139.31567955 C-84.25942848 130.46047039 -84.25998633 121.60539565 -84.24260186 112.75018903 C-84.23411695 108.23776358 -84.23188053 103.72557793 -84.24725342 99.21316528 C-84.26118593 95.07206091 -84.25622875 90.93139984 -84.23701418 86.79032055 C-84.23327989 85.3025486 -84.2361008 83.8147404 -84.24662583 82.327001 C-84.33370018 69.06202813 -82.33971869 55.83871129 -75.98005676 44.01268005 C-75.63644104 43.35259949 -75.29282532 42.69251892 -74.938797 42.01243591 C-71.84020593 36.24359465 -68.16008649 31.21581953 -63.73005676 26.38768005 C-63.06618958 25.63228943 -62.40232239 24.8768988 -61.71833801 24.09861755 C-45.44794422 6.59516249 -23.37040938 -0.10370746 0 0 Z " fill="#FD825B" transform="translate(83.73005676269531,-0.3876800537109375)"/>
<path d="M0 0 C12.25726298 5.27314746 20.69997715 20.36849313 25.875 32.0625 C30.18467672 43.56418483 31.44178066 54.53851935 31.38768005 66.73005676 C31.39186173 68.28080224 31.39734379 69.83154465 31.40399987 71.38228148 C31.41836402 75.60907386 31.41423825 79.83566975 31.40683305 84.06247246 C31.40208113 88.63452646 31.41462909 93.20653917 31.42485046 97.77857971 C31.44200461 106.72243311 31.44288547 115.66621614 31.43763756 124.61008171 C31.4335881 131.88366916 31.43504862 139.1572359 31.44038582 146.43082237 C31.44113424 147.46797726 31.44188266 148.50513215 31.44265376 149.57371598 C31.44418532 151.68103634 31.44572367 153.7883567 31.44726873 155.89567705 C31.46098168 175.63674184 31.45556469 195.37776695 31.44408352 215.11883082 C31.4341537 233.15531013 31.44708963 251.19168681 31.47101771 269.22815029 C31.49543561 287.77441329 31.50500989 306.32062855 31.49836498 324.8669073 C31.49487858 335.26863539 31.49706648 345.67028461 31.51461601 356.0720005 C31.52937172 364.92720967 31.52992957 373.7822844 31.5125451 382.63749103 C31.50406019 387.14991647 31.50182376 391.66210212 31.51719666 396.17451477 C31.53112917 400.31561914 31.52617198 404.45628022 31.50695742 408.5973595 C31.50322313 410.08513145 31.50604404 411.57293965 31.51656907 413.06067906 C31.60364342 426.32565192 29.60966193 439.54896877 23.25 451.375 C22.90638428 452.03508057 22.56276855 452.69516113 22.20874023 453.37524414 C19.11014916 459.14408541 15.43002973 464.17186053 11 469 C10.33613281 469.75539063 9.67226563 470.51078125 8.98828125 471.2890625 C-3.70120974 484.94023396 -22.05599598 493.8638839 -40.63909495 495.27666175 C-44.67252497 495.38703371 -48.69566591 495.40558288 -52.73005676 495.38768005 C-54.28080224 495.39186173 -55.83154465 495.39734379 -57.38228148 495.40399987 C-61.60907386 495.41836402 -65.83566975 495.41423825 -70.06247246 495.40683305 C-74.63452646 495.40208113 -79.20653917 495.41462909 -83.77857971 495.42485046 C-92.72243311 495.44200461 -101.66621614 495.44288547 -110.61008171 495.43763756 C-117.88366916 495.4335881 -125.1572359 495.43504862 -132.43082237 495.44038582 C-133.98655471 495.44150845 -133.98655471 495.44150845 -135.57371598 495.44265376 C-137.68103634 495.44418532 -139.7883567 495.44572367 -141.89567705 495.44726873 C-161.63674184 495.46098168 -181.37776695 495.45556469 -201.11883082 495.44408352 C-219.15531013 495.4341537 -237.19168681 495.44708963 -255.22815029 495.47101771 C-273.77441329 495.49543561 -292.32062855 495.50500989 -310.8669073 495.49836498 C-321.26863539 495.49487858 -331.67028461 495.49706648 -342.0720005 495.51461601 C-350.92720967 495.52937172 -359.7822844 495.52992957 -368.63749103 495.5125451 C-373.14991647 495.50406019 -377.66210212 495.50182376 -382.17451477 495.51719666 C-386.31561914 495.53112917 -390.45628022 495.52617198 -394.5973595 495.50695742 C-396.08513145 495.50322313 -397.57293965 495.50604404 -399.06067906 495.51656907 C-412.32611462 495.60364645 -425.5483913 493.60922566 -437.375 487.25 C-438.03435547 486.90710938 -438.69371094 486.56421875 -439.37304688 486.2109375 C-448.54642526 481.28732207 -455.85952449 474.49949383 -463 467 C-460.5574216 462.90161645 -457.27839828 461.42864959 -453.05078125 459.609375 C-452.36050339 459.3010675 -451.67022552 458.99276001 -450.95903015 458.67510986 C-448.74799392 457.68959653 -446.5307767 456.71909136 -444.3125 455.75 C-441.43121269 454.47929171 -438.55275105 453.2023263 -435.67578125 451.921875 C-434.9571138 451.60246948 -434.23844635 451.28306396 -433.4980011 450.95397949 C-426.48981164 447.81581863 -419.63183623 444.40265748 -412.7928772 440.91369629 C-411.1441877 440.07348176 -409.49158471 439.24095806 -407.83862305 438.40917969 C-376.48553321 422.61076578 -346.82210794 404.00850456 -318 384 C-316.85337891 383.20456787 -316.85337891 383.20456787 -315.68359375 382.39306641 C-313.67995831 380.99806705 -311.68202122 379.59549028 -309.6875 378.1875 C-309.11281982 377.78515137 -308.53813965 377.38280273 -307.94604492 376.96826172 C-304.99720947 374.91754614 -304.99720947 374.91754614 -303 372 C-302.36037197 372.07031811 -301.72074394 372.14063622 -301.06173325 372.21308517 C-293.58873555 372.97097322 -286.19608708 373.15407965 -278.68847656 373.16113281 C-277.40398621 373.16609772 -276.11949585 373.17106262 -274.79608154 373.17617798 C-271.30410204 373.18916892 -267.81214163 373.19572016 -264.32014179 373.20018864 C-262.12943843 373.20314007 -259.93874006 373.20724846 -257.74803925 373.21169281 C-250.8672133 373.2253305 -243.98639904 373.23501622 -237.10556054 373.2388947 C-229.21137479 373.24337136 -221.31736252 373.26091675 -213.42322946 373.2898953 C-207.28693941 373.31162561 -201.15069778 373.32160493 -195.01436973 373.32293582 C-191.36484036 373.32397544 -187.71547487 373.32970108 -184.06598663 373.34775543 C-159.24978653 373.46347119 -138.70442853 372.22292324 -118 357 C-117.40574219 356.57976562 -116.81148438 356.15953125 -116.19921875 355.7265625 C-101.81486882 344.79290568 -93.59913734 325.43078666 -91 308 C-90.20590668 298.34972286 -90.37387794 288.64841648 -90.46009874 278.97340584 C-90.48808462 275.24707472 -90.48766041 271.52073131 -90.49081421 267.79431152 C-90.4999509 261.55120413 -90.52726649 255.30840859 -90.56787109 249.06542969 C-90.62489249 240.29105455 -90.64708032 231.51683448 -90.66315579 222.74230289 C-90.67564784 216.61823591 -90.69628 210.49419177 -90.7185359 204.37015343 C-90.72387531 202.89743305 -90.72901364 201.42471192 -90.73394823 199.95199013 C-90.75056676 195.11180462 -90.77662577 190.27175894 -90.80712891 185.43164062 C-90.81351883 183.6281868 -90.81351883 183.6281868 -90.82003784 181.78829956 C-90.86768277 175.51730047 -91.1660341 169.41206256 -91.98715782 163.19115448 C-92 161 -92 161 -89.9609375 158.3671875 C-88.98382813 157.58601562 -88.00671875 156.80484375 -87 156 C-84.73318539 153.14378383 -82.69474688 150.12614765 -80.625 147.125 C-80.0163208 146.24714844 -79.4076416 145.36929688 -78.78051758 144.46484375 C-48.24895263 100.18021611 -17.17721856 51.30563963 0 0 Z " fill="#BC1C9E" transform="translate(481,17)"/>
<path d="M0 0 C1.13930969 -0.00571014 2.27861938 -0.01142029 3.45245361 -0.01730347 C5.30632439 -0.01898026 5.30632439 -0.01898026 7.19764709 -0.02069092 C9.1671785 -0.02813828 9.1671785 -0.02813828 11.17649841 -0.03573608 C14.7700104 -0.04881226 18.36350374 -0.0552965 21.95703578 -0.05974674 C24.2088532 -0.06268722 26.46066565 -0.06679398 28.71248055 -0.07125092 C35.77699761 -0.08491769 42.84150314 -0.09458648 49.9060325 -0.09845281 C58.02439859 -0.1029217 66.14259533 -0.12041845 74.26090997 -0.1494534 C80.55845662 -0.17118344 86.85595604 -0.1811632 93.15353972 -0.18249393 C96.903746 -0.18353455 100.65379293 -0.1892811 104.40395927 -0.20731354 C107.94089196 -0.22398978 111.47754891 -0.22585688 115.01450729 -0.21717453 C116.90452866 -0.21605665 118.79454169 -0.22962487 120.68450928 -0.243927 C139.41658791 -0.15435641 156.06032174 4.92455216 171.17835999 16.14044189 C171.84609436 16.63415283 172.51382874 17.12786377 173.20179749 17.63653564 C184.00321586 26.26300778 191.12447634 38.36344857 195.49085999 51.26544189 C195.87298645 52.39369385 195.87298645 52.39369385 196.26283264 53.54473877 C199.21067274 62.71579684 199.33763477 71.66442196 199.37123108 81.23150635 C199.37940857 82.52864059 199.38758606 83.82577484 199.39601135 85.16221619 C199.42205663 89.44269785 199.43752745 93.72318839 199.45179749 98.00372314 C199.45716549 99.48794241 199.462543 100.97216164 199.46792984 102.45638084 C199.48953828 108.64079731 199.5082661 114.82521137 199.51955223 121.00965595 C199.53573625 129.81445904 199.56880151 138.61881717 199.62595308 147.42345268 C199.66493539 153.64551514 199.68421833 159.86746008 199.68947279 166.08964127 C199.69308961 169.78978025 199.70470985 173.4894429 199.73757553 177.1894474 C199.96321096 203.91972908 197.04827149 226.74600128 178.87367249 247.42169189 C164.65273275 261.76629198 145.52809783 270.02249793 125.33016968 270.27415466 C122.97790393 270.28311392 120.62561334 270.28658732 118.27333069 270.28570557 C116.98460556 270.28906418 115.69588043 270.29242279 114.36810303 270.29588318 C110.84715816 270.30468214 107.32623763 270.30705961 103.80528283 270.30769897 C101.59988356 270.30841202 99.39449039 270.31055121 97.18909264 270.31319618 C89.47888678 270.3224374 81.76869815 270.32653277 74.05848694 270.32574463 C66.89843879 270.32514479 59.7384662 270.33568123 52.57843715 270.35148829 C46.41000306 270.36461552 40.2415935 270.36992633 34.07314557 270.36928922 C30.39854247 270.36903567 26.72400654 270.37180698 23.0494175 270.38246727 C18.94301416 270.39405574 14.83677727 270.38936989 10.73036194 270.38336182 C9.5315036 270.38898132 8.33264526 270.39460083 7.09745789 270.40039062 C-14.96050688 270.31879278 -33.9237283 263.31641848 -49.69664001 247.89044189 C-65.76470245 231.43609335 -71.1289488 211.09037513 -71.11216736 188.56939697 C-71.11888458 187.2572522 -71.12560181 185.94510742 -71.13252258 184.59320068 C-71.15003962 181.02469067 -71.1548719 177.45627684 -71.15615416 173.88772798 C-71.15758467 171.64876663 -71.16187117 169.40982904 -71.16714859 167.17087364 C-71.18560282 159.33283333 -71.19382516 151.49486063 -71.19224548 143.65679932 C-71.1910459 136.39440769 -71.21212407 129.13231411 -71.24373281 121.8699978 C-71.27003845 115.59865091 -71.28060682 109.3274005 -71.27933466 103.05599898 C-71.27882913 99.32647441 -71.28428213 95.59721508 -71.30569077 91.86774635 C-71.44975876 64.87270368 -68.49644306 42.97845526 -49.82164001 22.14044189 C-36.51353051 9.32016631 -18.77633648 0.05668817 0 0 Z " fill="#FC5078" transform="translate(191.82164001464844,120.85955810546875)"/>
<path d="M0 0 C1.13930969 -0.00571014 2.27861938 -0.01142029 3.45245361 -0.01730347 C5.30632439 -0.01898026 5.30632439 -0.01898026 7.19764709 -0.02069092 C9.1671785 -0.02813828 9.1671785 -0.02813828 11.17649841 -0.03573608 C14.7700104 -0.04881226 18.36350374 -0.0552965 21.95703578 -0.05974674 C24.2088532 -0.06268722 26.46066565 -0.06679398 28.71248055 -0.07125092 C35.77699761 -0.08491769 42.84150314 -0.09458648 49.9060325 -0.09845281 C58.02439859 -0.1029217 66.14259533 -0.12041845 74.26090997 -0.1494534 C80.55845662 -0.17118344 86.85595604 -0.1811632 93.15353972 -0.18249393 C96.903746 -0.18353455 100.65379293 -0.1892811 104.40395927 -0.20731354 C107.94089196 -0.22398978 111.47754891 -0.22585688 115.01450729 -0.21717453 C116.90452866 -0.21605665 118.79454169 -0.22962487 120.68450928 -0.243927 C139.41658791 -0.15435641 156.06032174 4.92455216 171.17835999 16.14044189 C171.84609436 16.63415283 172.51382874 17.12786377 173.20179749 17.63653564 C184.00321586 26.26300778 191.12447634 38.36344857 195.49085999 51.26544189 C195.87298645 52.39369385 195.87298645 52.39369385 196.26283264 53.54473877 C199.21067274 62.71579684 199.33763477 71.66442196 199.37123108 81.23150635 C199.37940857 82.52864059 199.38758606 83.82577484 199.39601135 85.16221619 C199.42205663 89.44269785 199.43752745 93.72318839 199.45179749 98.00372314 C199.45716549 99.48794241 199.462543 100.97216164 199.46792984 102.45638084 C199.48953828 108.64079731 199.5082661 114.82521137 199.51955223 121.00965595 C199.53573625 129.81445904 199.56880151 138.61881717 199.62595308 147.42345268 C199.66493539 153.64551514 199.68421833 159.86746008 199.68947279 166.08964127 C199.69308961 169.78978025 199.70470985 173.4894429 199.73757553 177.1894474 C199.96321096 203.91972908 197.04827149 226.74600128 178.87367249 247.42169189 C164.65273275 261.76629198 145.52809783 270.02249793 125.33016968 270.27415466 C122.97790393 270.28311392 120.62561334 270.28658732 118.27333069 270.28570557 C116.98460556 270.28906418 115.69588043 270.29242279 114.36810303 270.29588318 C110.84715816 270.30468214 107.32623763 270.30705961 103.80528283 270.30769897 C101.59988356 270.30841202 99.39449039 270.31055121 97.18909264 270.31319618 C89.47888678 270.3224374 81.76869815 270.32653277 74.05848694 270.32574463 C66.89843879 270.32514479 59.7384662 270.33568123 52.57843715 270.35148829 C46.41000306 270.36461552 40.2415935 270.36992633 34.07314557 270.36928922 C30.39854247 270.36903567 26.72400654 270.37180698 23.0494175 270.38246727 C18.94301416 270.39405574 14.83677727 270.38936989 10.73036194 270.38336182 C9.5315036 270.38898132 8.33264526 270.39460083 7.09745789 270.40039062 C-14.96050688 270.31879278 -33.9237283 263.31641848 -49.69664001 247.89044189 C-65.76470245 231.43609335 -71.1289488 211.09037513 -71.11216736 188.56939697 C-71.11888458 187.2572522 -71.12560181 185.94510742 -71.13252258 184.59320068 C-71.15003962 181.02469067 -71.1548719 177.45627684 -71.15615416 173.88772798 C-71.15758467 171.64876663 -71.16187117 169.40982904 -71.16714859 167.17087364 C-71.18560282 159.33283333 -71.19382516 151.49486063 -71.19224548 143.65679932 C-71.1910459 136.39440769 -71.21212407 129.13231411 -71.24373281 121.8699978 C-71.27003845 115.59865091 -71.28060682 109.3274005 -71.27933466 103.05599898 C-71.27882913 99.32647441 -71.28428213 95.59721508 -71.30569077 91.86774635 C-71.44975876 64.87270368 -68.49644306 42.97845526 -49.82164001 22.14044189 C-36.51353051 9.32016631 -18.77633648 0.05668817 0 0 Z M-32.82164001 45.14044189 C-39.373051 53.39055866 -43.36064455 61.85699657 -45.82164001 72.14044189 C-46.08530601 73.06623582 -46.08530601 73.06623582 -46.35429859 74.01073265 C-46.87546375 76.38572063 -46.95049462 78.52649845 -46.95535278 80.95797729 C-46.95961777 81.92506622 -46.96388275 82.89215515 -46.96827698 83.8885498 C-46.96782379 84.94314392 -46.96737061 85.99773804 -46.96690369 87.08428955 C-46.9702623 88.20022491 -46.97362091 89.31616028 -46.9770813 90.46591187 C-46.98659421 94.16212065 -46.98853484 97.85828412 -46.98960876 101.55450439 C-46.99282198 104.12558002 -46.99618611 106.69665547 -46.99969482 109.26773071 C-47.00568756 114.66296896 -47.00757748 120.05818925 -47.00694275 125.45343018 C-47.00634337 131.66995053 -47.01686809 137.88638371 -47.03268641 144.10288203 C-47.04739763 150.10003375 -47.05092912 156.09713861 -47.05033302 162.09431076 C-47.05151037 164.63710256 -47.05591832 167.17989505 -47.06366539 169.72267532 C-47.07350916 173.28859838 -47.07056941 176.85430011 -47.06455994 180.42022705 C-47.07017944 181.46267578 -47.07579895 182.50512451 -47.08158875 183.5791626 C-47.01281633 199.7128565 -42.19337418 213.68232407 -31.82164001 226.14044189 C-31.0230658 227.10917236 -31.0230658 227.10917236 -30.20835876 228.09747314 C-20.71531727 238.532752 -6.73218106 244.92255141 7.17835999 246.14044189 C10.91686916 246.28175193 14.65183464 246.28736518 18.39271545 246.28570557 C19.48972778 246.28906418 20.58674011 246.29242279 21.71699524 246.29588318 C25.32652432 246.30534567 28.93600679 246.30733384 32.54554749 246.30841064 C35.06606566 246.31162616 37.58658365 246.31499046 40.10710144 246.3184967 C45.38427531 246.32447597 50.66143745 246.32638079 55.93861389 246.32574463 C62.01661732 246.32514414 68.09453192 246.33569621 74.17251289 246.35148829 C80.04579701 246.3661982 85.91904628 246.36973113 91.79234695 246.3691349 C94.2793171 246.37031156 96.76628797 246.3747156 99.25324631 246.38246727 C102.73731019 246.39231146 106.22114759 246.38937169 109.70521545 246.38336182 C110.72267853 246.38898132 111.7401416 246.39460083 112.78843689 246.40039062 C130.55299233 246.32288562 145.75077915 240.34284242 158.52992249 227.83966064 C171.13150707 214.17614478 175.33173987 199.20830456 175.32362366 180.94195557 C175.32698227 179.84654953 175.33034088 178.75114349 175.33380127 177.62254333 C175.34326447 174.01782076 175.34525203 170.41314486 175.34632874 166.80841064 C175.34954444 164.2902881 175.35290875 161.77216574 175.35641479 159.25404358 C175.36239442 153.98106587 175.36429887 148.70809991 175.36366272 143.43511963 C175.36306254 137.36508853 175.37360828 131.29514648 175.38940638 125.22513789 C175.40412698 119.35719656 175.40764891 113.48929009 175.40705299 107.62133217 C175.40822881 105.13797962 175.41262808 102.65462634 175.42038536 100.17128563 C175.43024283 96.68982033 175.4272845 93.20858118 175.42127991 89.72711182 C175.42689941 88.71324402 175.43251892 87.69937622 175.43830872 86.65478516 C175.35872608 68.38794181 169.30121009 53.9546162 156.99085999 40.45294189 C143.4634649 27.63427138 127.78677292 24.01013308 109.85975647 23.96343994 C108.75126846 23.95686874 107.64278046 23.95029755 106.5007019 23.94352722 C102.85028502 23.92389776 99.1999091 23.91215414 95.54945374 23.90216064 C94.29573534 23.89808512 93.04201694 23.89400959 91.75030708 23.88981056 C85.79531868 23.87113313 79.84034307 23.85655837 73.88533252 23.84819859 C67.05566481 23.83844746 60.22632301 23.81216837 53.39676994 23.7716977 C47.44556162 23.73766571 41.49443122 23.72603474 35.54312325 23.7219944 C33.02956496 23.71715126 30.51600958 23.70560297 28.00251579 23.68695641 C3.88155786 23.51914594 -15.70226372 26.20106546 -32.82164001 45.14044189 Z " fill="#FEFCFD" transform="translate(191.82164001464844,120.85955810546875)"/>
<path d="M0 0 C0.98871094 0.4228125 1.97742188 0.845625 2.99609375 1.28125 C18.58674019 8.88860089 30.97725646 23.88902123 37 40 C39.54206917 48.06315989 40.58239896 55.74967673 40.5625 64.1875 C40.55887451 65.8128064 40.55887451 65.8128064 40.55517578 67.47094727 C40.13377766 86.05515539 31.85731339 100.90618084 19 114 C18.31164062 114.71285156 17.62328125 115.42570312 16.9140625 116.16015625 C10.78609117 122.07171224 3.74380765 125.6606943 -4 129 C-4.99515625 129.43699219 -5.9903125 129.87398437 -7.015625 130.32421875 C-22.7208341 136.18283733 -41.93933422 134.37233764 -57.04296875 127.64453125 C-63.22955572 124.46163892 -68.72985216 120.52589032 -74 116 C-74.59296875 115.50242187 -75.1859375 115.00484375 -75.796875 114.4921875 C-87.2552567 104.03247209 -95.39958278 87.8172398 -96.12304688 72.37329102 C-96.20646245 69.33141995 -96.23486097 66.29294504 -96.25 63.25 C-96.270625 62.2290625 -96.29125 61.208125 -96.3125 60.15625 C-96.3962045 43.66646341 -89.64559183 27.86056393 -78.20019531 16.02685547 C-76.82236489 14.66175654 -75.41163206 13.33011528 -74 12 C-73.20851562 11.25105469 -72.41703125 10.50210938 -71.6015625 9.73046875 C-52.14575982 -7.17216381 -23.32421214 -10.06877585 0 0 Z " fill="#FEFDFD" transform="translate(284,192)"/>
<path d="M0 0 C0.33 0 0.66 0 1 0 C1.04642573 13.25681 1.0819212 26.51360052 1.10362434 39.77047539 C1.11404293 45.9267655 1.12816699 52.08299981 1.15087891 58.23925781 C1.17267588 64.18500438 1.1845831 70.13069741 1.18975449 76.07648087 C1.19343794 78.34016894 1.20063072 80.60385422 1.21146011 82.86751938 C1.22606606 86.04829902 1.22797413 89.22885996 1.22705078 92.40966797 C1.23424133 93.33684128 1.24143188 94.26401459 1.24884033 95.21928406 C1.19413566 112.73710308 -5.06571424 127.68295717 -17.23046875 140.31640625 C-30.6484754 152.8319629 -45.38970329 157.18268471 -63.36328125 157.11352539 C-64.36906723 157.11367142 -65.37485321 157.11381744 -66.41111755 157.1139679 C-69.71160086 157.11327526 -73.01202664 157.10551341 -76.3125 157.09765625 C-78.61035125 157.09578976 -80.9082029 157.09436695 -83.20605469 157.09336853 C-89.23611562 157.08956153 -95.26615224 157.07974682 -101.29620361 157.06866455 C-107.45658031 157.0584113 -113.61696097 157.05386254 -119.77734375 157.04882812 C-131.85157315 157.03812286 -143.92578455 157.02106834 -156 157 C-150.51946935 151.49775197 -150.51946935 151.49775197 -147.8359375 149.203125 C-147.27704834 148.72423828 -146.71815918 148.24535156 -146.14233398 147.75195312 C-145.55911377 147.25630859 -144.97589355 146.76066406 -144.375 146.25 C-143.75890869 145.72341797 -143.14281738 145.19683594 -142.50805664 144.65429688 C-138.86083383 141.54738589 -135.17040712 138.50386652 -131.4375 135.5 C-124.57181692 129.92992131 -117.47820097 123.99134402 -111.56396484 117.39941406 C-108.83564044 114.95814721 -105.12939946 114.78128566 -101.625 114.125 C-81.49550374 109.96797445 -64.96920885 101.15067769 -53.1875 83.75 C-46.91162039 73.13969994 -43.4982789 62.6145384 -41.93359375 50.4609375 C-40.79390247 46.23597316 -39.2656997 44.86033391 -36 42 C-34.98300222 40.95667597 -33.97835134 39.90121706 -32.984375 38.8359375 C-32.46020996 38.27704834 -31.93604492 37.71815918 -31.39599609 37.14233398 C-26.15081306 31.51049181 -21.08038539 25.81422177 -16.265625 19.8046875 C-13.15104939 15.94905769 -9.9358787 12.18188715 -6.71630859 8.41381836 C-4.82421918 6.19160056 -2.97713402 3.9690547 -1.2421875 1.62109375 C-0.83226562 1.08613281 -0.42234375 0.55117187 0 0 Z " fill="#D91C8C" transform="translate(366,210)"/>
<path d="M0 0 C0.91813477 -0.01482422 1.83626953 -0.02964844 2.78222656 -0.04492188 C15.09414142 0.14035237 25.13871547 6.02570845 34.0625 14.1875 C42.70301582 23.17294659 46.35973559 34.86295912 46.12109375 47.08984375 C45.40560845 57.18613633 42.7393929 65.32227613 36.875 73.5625 C36.1325 74.614375 35.39 75.66625 34.625 76.75 C25.42063329 86.16355686 13.56392897 91.53078345 0.375 91.875 C-11.97502981 91.72346589 -22.97833258 86.93804338 -32.15234375 78.75390625 C-42.39824473 67.96992732 -45.85414781 54.51833022 -45.5 40.08203125 C-44.85847627 29.09593742 -38.57849014 18.94971509 -30.875 11.33984375 C-21.32131808 3.14878633 -12.45298542 0.14146392 0 0 Z " fill="#FB3982" transform="translate(255.125,210.4375)"/>
<path d="M0 0 C3.73762056 2.60764225 6.64972919 5.48014428 8.5 9.75 C8.561875 10.45125 8.62375 11.1525 8.6875 11.875 C8.81125 13.1125 8.935 14.35 9.0625 15.625 C8.96888379 20.64282867 7.04541753 24.20886782 3.6875 27.875 C-0.96496409 31.3400151 -5.50451009 32.71979853 -11.3125 31.875 C-16.84431141 29.6926187 -20.62766236 26.24467528 -23.3125 20.875 C-23.91108031 15.23979397 -24.44221935 9.65834395 -21.125 4.8125 C-15.25140381 -1.87687344 -8.33228608 -2.82983301 0 0 Z " fill="#FEFBFC" transform="translate(336.3125,168.125)"/>
</svg>
